<svg xmlns="http://www.w3.org/2000/svg" viewBox="0 0 64 64" id="disc-brake"><g data-name="Disc Brake-car-automobile-car Parts"><circle cx="32" cy="8" r="2"></circle><circle cx="20" cy="11" r="2"></circle><circle cx="44" cy="11" r="2"></circle><path d="M51.49,13.92l1.72-1.71a1.008,1.008,0,0,0,0-1.42A29.775,29.775,0,0,0,32.03,2h-.04a29.721,29.721,0,0,0-21.2,8.79,1.008,1.008,0,0,0,0,1.42l1.72,1.71a28,28,0,1,0,38.98,0ZM31.99,4h.04a27.768,27.768,0,0,1,19.04,7.51l-5.65,5.67A19.782,19.782,0,0,0,32.02,12h-.04a19.777,19.777,0,0,0-13.39,5.17l-5.66-5.66A27.707,27.707,0,0,1,31.99,4ZM32,60A25.983,25.983,0,0,1,13.92,15.34l3.94,3.94a1.014,1.014,0,0,0,1.42,0A17.786,17.786,0,0,1,31.99,14h.03a17.78,17.78,0,0,1,12.7,5.28,1.033,1.033,0,0,0,.71.29h.01a1.033,1.033,0,0,0,.71-.29l3.93-3.94A25.983,25.983,0,0,1,32,60Z"></path><path d="M43 34A11 11 0 1 0 32 45 11.013 11.013 0 0 0 43 34zM23 34a9 9 0 1 1 9 9A9.011 9.011 0 0 1 23 34zM50 34A18.021 18.021 0 0 1 32 52v2A20.023 20.023 0 0 0 52 34z"></path><path d="M37 34a5 5 0 1 0-5 5A5.006 5.006 0 0 0 37 34zm-8 0a3 3 0 1 1 3 3A3 3 0 0 1 29 34zM10 34a21.857 21.857 0 0 0 6.444 15.556l1.414-1.414A19.872 19.872 0 0 1 12 34zM32 19V17A17.019 17.019 0 0 0 15 34h2A15.017 15.017 0 0 1 32 19z"></path><rect width="2" height="2" x="31" y="26"></rect><rect width="2" height="2" x="26.05" y="28.05" transform="rotate(-45 27.05 29.05)"></rect><rect width="2" height="2" x="24" y="33"></rect><rect width="2" height="2" x="26.05" y="37.95" transform="rotate(-45 27.05 38.95)"></rect><rect width="2" height="2" x="31" y="40"></rect><rect width="2" height="2" x="35.95" y="37.95" transform="rotate(-45 36.95 38.95)"></rect><rect width="2" height="2" x="38" y="33"></rect><rect width="2" height="2" x="35.95" y="28.05" transform="rotate(-45 36.95 29.05)"></rect></g></svg>